# xmcd
#
# Track frame offsets:
#	150
#	11137
#	25400
#	37962
#	49137
#	58850
#	69425
#	81200
#	90650
#	101212
#	111662
#	123087
#	132187
#	143062
#	154100
#	165637
#
# Disc length: 2341 seconds
#
# Revision: 0
# Processed by: cddbd v1.4PL0 Copyright (c) Steve Scherf et al.
# Submitted via: EasyCDDAExtractor 4.5.0.2
#
DISCID=db092310
DTITLE=Patsy Cline - Hungry For Love
DYEAR=1900
DGENRE=
TTITLE0=Don't Ever Leave Me
TTITLE1=Then You'll Know
TTITLE2=Yes I Understand
TTITLE3=Dear God
TTITLE4=I'm Blue Again
TTITLE5=Stop Look and Listen
TTITLE6=If I Could Stay  Asleep
TTITLE7=I'm Moving Along
TTITLE8=Gotta Lot Of Rhythm
TTITLE9=I Don't Wanna
TTITLE10=Let The Teardrops fall
TTITLE11=I Love You Honey
TTITLE12=I Can't Forget
TTITLE13=Hungry For Love
TTITLE14=Never No More
TTITLE15=Too Many Secrets
EXTD=
EXTT0=
EXTT1=
EXTT2=
EXTT3=
EXTT4=
EXTT5=
EXTT6=
EXTT7=
EXTT8=
EXTT9=
EXTT10=
EXTT11=
EXTT12=
EXTT13=
EXTT14=
EXTT15=
PLAYORDER=
